# xmcd
#
# Track frame offsets:
#	150
#	47055
#	75756
#	89375
#	117721
#	136747
#	158113
#
# Disc length: 2674 seconds
#
# Revision: 0
# Processed by: cddbd v1.4b42PL1 Copyright (c) Steve Scherf et al.
# Submitted via: EasyCDDAExtractor 4.5.0.1
#
DISCID=4d0a7007
DTITLE=Led Zeppelin - Presence
DYEAR=1976
DGENRE=Metal
TTITLE0=Achilles Last Stand
TTITLE1=For Your Life
TTITLE2=Royal Orleans
TTITLE3=Nobody's Fault But Mine
TTITLE4=Candy Store Rock
TTITLE5=Hots On For Nowhere
TTITLE6=Tea For One
EXTD=YEAR: 1976 ID3G:  79
EXTT0=
EXTT1=
EXTT2=
EXTT3=
EXTT4=
EXTT5=
EXTT6=
PLAYORDER=
